<svg xmlns="http://www.w3.org/2000/svg" viewBox="0 0 640 300">
<defs>
<linearGradient id="rail" x1="0" y1="0" x2="0" y2="1">
<stop offset="0" stop-color="#5E4020"/><stop offset=".5" stop-color="#4E3419"/><stop offset="1" stop-color="#3A2712"/>
</linearGradient>
<linearGradient id="plank" x1="0" y1="0" x2="0" y2="1">
<stop offset="0" stop-color="#94693A"/><stop offset=".55" stop-color="#8A6134"/><stop offset="1" stop-color="#7A552C"/>
</linearGradient>
<linearGradient id="veld" x1="0" y1="0" x2="0" y2="1">
<stop offset="0" stop-color="#3D5E92"/><stop offset="1" stop-color="#1F3557"/>
</linearGradient>
</defs>
<ellipse cx="320" cy="272" rx="286" ry="16" fill="rgba(20,12,4,.35)"/>
<rect x="18" y="52" width="604" height="216" rx="20" fill="url(#rail)" stroke="#2A1B0C" stroke-width="6"/>
<rect x="30" y="64" width="580" height="192" rx="13" fill="none" stroke="#C9A227" stroke-width="3" opacity=".9"/>
<rect x="42" y="76" width="556" height="168" rx="9" fill="url(#plank)" stroke="#2A1B0C" stroke-width="4"/>
<path d="M52 96h536M52 128h536M52 192h536M52 224h536" stroke="#6E4B26" stroke-width="2.5" opacity=".55"/>
<path d="M52 84h536" stroke="#B98A50" stroke-width="3" opacity=".6"/>
<path d="M120 108c40-3 90-3 120 0M420 206c50 4 100 3 150-2" stroke="#5E4020" stroke-width="2" opacity=".4" fill="none"/>
<g>
<circle cx="52" cy="160" r="9" fill="#4A505C" stroke="#2A1B0C" stroke-width="3.5"/>
<circle cx="49" cy="157" r="3" fill="#AEB6C2"/>
<circle cx="588" cy="160" r="9" fill="#4A505C" stroke="#2A1B0C" stroke-width="3.5"/>
<circle cx="585" cy="157" r="3" fill="#AEB6C2"/>
</g>
<g>
<path d="M320 14c14 0 24 4 30 7v26c0 16-13 28-30 33c-17-5-30-17-30-33V21c6-3 16-7 30-7Z"
  fill="url(#veld)" stroke="#2A1B0C" stroke-width="5"/>
<path d="M320 14c14 0 24 4 30 7v26c0 16-13 28-30 33c-17-5-30-17-30-33V21c6-3 16-7 30-7Z"
  fill="none" stroke="#C9A227" stroke-width="2.5" transform="translate(0,0)" opacity=".9"/>
<path d="M303 52v-14l7 6 10-11 10 11 7-6v14c0 3-3 5-6 5h-22c-3 0-6-2-6-5Z" fill="#C9A227" stroke="#2A1B0C" stroke-width="3" stroke-linejoin="round"/>
<path d="M310 30c4 5 6 8 4 14" stroke="rgba(255,255,255,.4)" stroke-width="3" fill="none" stroke-linecap="round"/>
</g>
</svg>
